P3
2 3
255
255
255
255
10
10
255
255
10
10
255
10
10
10
255
10
10
10
255
