P3
2 3
255
245
245
245
0
0
245
245
0
0
245
0
0
0
245
0
0
0
245
